<?xml version="1.0" encoding="UTF-8"?>
<svg id="Layer_3" data-name="Layer 3" xmlns="http://www.w3.org/2000/svg" viewBox="0 0 5408.05 982.96">
  <defs>
    <style>
      .cls-1 {
        fill: #2aabe2;
      }

      .cls-2 {
        fill: #edf0f3;
      }
    </style>
  </defs>
  <g>
    <path class="cls-2" d="M426.02,711.29c-57.26,0-114.63-11.58-170.51-34.42-51.56-21.07-91.11-52.1-117.55-92.23-26.11-39.63-39.77-88.58-40.59-145.51-.73-50.56,7.69-95.77,25.01-134.39,18.4-41,47.57-76.17,86.7-104.51,46.71-33.85,101.88-54.77,168.67-63.95,22.06-3.03,41.51-4.5,59.45-4.5,3,0,6.02.04,8.95.12h.28c.24,0,.49,0,.73-.03,73.97.78,131.03,13.09,179.51,38.71,46.11,24.36,81.41,56.06,104.9,94.21,23.55,38.24,35.97,84.14,36.92,136.44.92,50.35-7.18,94.4-24.75,134.66-28.38,65.01-73.88,111.09-135.23,136.94-60.52,25.51-121.92,38.45-182.5,38.45h0ZM440.73,239.2c-25.37,0-51.15,5.39-74.57,15.59-59.22,25.8-94.39,76.98-104.54,152.13-6.82,50.55,7.29,98.84,39.75,135.97,31.75,36.32,77.83,57.16,126.42,57.16,14.57,0,29.34-1.86,43.88-5.52,81.83-20.58,133-89.63,133.65-180.29.01-.22.02-.45.02-.67-.45-119.8-85.64-174.36-164.61-174.36h0Z"/>
    <path class="cls-2" d="M437.2,141.79c2.91,0,5.83.04,8.67.12h.56c.32,0,.64,0,.95-.02,33.93.37,63.45,3.11,90.18,8.37,31.29,6.15,58.92,15.69,84.44,29.18,44.51,23.52,78.51,54,101.06,90.61,22.6,36.69,34.52,80.89,35.44,131.38.89,48.88-6.93,91.56-23.92,130.47-27.32,62.58-71.04,106.9-129.95,131.73-59.29,24.99-119.39,37.67-178.62,37.67-55.96,0-112.06-11.33-166.73-33.67-99.2-40.54-150.31-117.47-151.92-228.63-.7-49.09,7.42-92.88,24.14-130.15,8.7-19.38,19.94-37.52,33.43-53.92,13.97-16.99,30.8-32.66,50.02-46.59,45.34-32.86,99.04-53.19,164.15-62.14,21.61-2.97,40.61-4.41,58.09-4.41M427.78,610.04c15.39,0,30.98-1.96,46.31-5.82,86.39-21.73,140.44-94.36,141.21-189.67.02-.34.02-.69.02-1.03-.47-126.63-90.84-184.31-174.62-184.32-26.72,0-53.88,5.68-78.55,16.42-62.65,27.29-99.81,81.11-110.46,159.96-7.22,53.45,7.74,104.55,42.13,143.89,33.65,38.5,82.47,60.57,133.95,60.57M437.2,121.79c-20.38,0-40.65,1.83-60.81,4.59-62.73,8.63-121.56,28.36-173.17,65.76-83.98,60.82-117.3,146.17-115.85,247.14,1.7,117.4,56.16,202.63,164.36,246.85,57.72,23.59,116,35.16,174.3,35.16,62.38,0,124.76-13.26,186.38-39.24,65.66-27.67,111.94-76.72,140.51-142.16,19.33-44.29,26.46-90.72,25.58-138.84-1.97-108.86-51.39-188.71-147.15-239.3-57.61-30.44-120.57-39.27-184.92-39.88v.03c-3.08-.09-6.16-.13-9.23-.13h0v.02ZM427.78,590.04c-94.16,0-169.79-81.56-156.26-181.79,8.71-64.52,36.54-117.25,98.63-144.3,22.54-9.82,46.71-14.76,70.57-14.75,78.88,0,154.19,54.02,154.61,164.4l-.02-.02c-.4,86.05-48.82,151.82-126.1,171.25-14.06,3.54-27.93,5.21-41.44,5.21h.01Z"/>
  </g>
  <g>
    <path class="cls-2" d="M1761.39,902.82c-2.76,0-5.6-.03-8.44-.09-31.56-.66-58.9-3.95-85.41-10.31-.65-4.58-1.29-9.16-1.94-13.74-1.92-13.59-3.84-27.19-5.73-40.81-1.65-11.88-3.28-23.76-4.96-36.03-.48-3.53-.97-7.08-1.46-10.68,22.48,8.42,45.51,15.67,68.84,15.67,17.48,0,33.44-3.96,48.8-12.09,30.81-16.33,44.21-47.4,53.26-75.64.65-2.03.63-4.21-.04-6.23-47.02-140.28-94.25-281.17-141.97-423.6h146.94c6.21,23.71,12.76,47.65,19.12,70.87,18.55,67.81,37.74,137.92,50.16,208.48.23,1.32.73,2.58,1.46,3.7l.09.15c.55.85,1.1,1.7,1.66,2.54,1.87,2.81,5.01,4.45,8.32,4.45.49,0,.99-.04,1.48-.11,3.83-.57,6.99-3.31,8.1-7.02.25-.83.49-1.67.73-2.5l.18-.62c.1-.34.18-.68.24-1.02,17.85-69.11,43.77-137,68.84-202.65,3.74-9.79,7.47-19.57,11.19-29.36,4.57-12.04,9.22-23.86,14.15-36.38,1.38-3.51,2.77-7.04,4.17-10.61h142.63c-5.87,13.22-11.72,26.37-17.55,39.47-16.56,37.22-33.69,75.7-50.09,113.5-8.74,20.14-17.49,40.27-26.24,60.41-40.3,92.71-81.96,188.59-121.92,283.35-17.34,41.12-39.72,70.1-68.43,88.62-29.5,19.02-67.5,28.27-116.18,28.27h0Z"/>
    <path class="cls-2" d="M2146.42,299.21c-3.8,8.56-7.59,17.06-11.31,25.42-16.57,37.23-33.7,75.73-50.12,113.57-8.77,20.2-17.54,40.39-26.32,60.58-40.28,92.68-81.93,188.52-121.89,283.27-8.42,19.96-17.72,36.44-28.45,50.38-10.67,13.87-22.51,24.9-36.18,33.72-27.83,17.95-64.06,26.68-110.76,26.68-2.69,0-5.46-.03-8.23-.09-28.21-.59-52.92-3.32-76.68-8.52-.33-2.34-.66-4.67-.99-7.01-1.89-13.34-3.83-27.13-5.72-40.71-1.4-10.06-2.77-20.02-4.19-30.38,18.4,6.15,37.26,10.72,56.7,10.72s36.64-4.34,53.49-13.26c33.98-18.01,48.44-51.27,58.1-81.43,1.3-4.06,1.27-8.42-.08-12.46-45.57-135.95-91.33-272.48-137.56-410.42h125.34c5.63,21.3,11.48,42.7,17.18,63.51,18.49,67.59,37.62,137.47,49.95,207.57.46,2.64,1.48,5.19,2.93,7.44.6.92,1.2,1.85,1.81,2.77,3.74,5.61,10.02,8.9,16.64,8.9.98,0,1.97-.07,2.96-.22,7.66-1.15,13.97-6.61,16.2-14.04.26-.87.51-1.75.76-2.62l.18-.61c.15-.53.28-1.06.39-1.59,17.71-68.47,43.49-135.99,68.43-201.29,3.67-9.62,7.47-19.57,11.19-29.38,4.54-11.98,9.18-23.76,14.09-36.23.56-1.43,1.13-2.86,1.69-4.3h120.44M2177.17,279.21h0ZM2177.17,279.21h-164.83c-7.21,18.45-14.19,35.88-20.85,53.44-29.24,77.12-59.95,153.74-80.56,233.83l.03-.02c-.29.99-.57,2.01-.88,3.02-.57-.86-1.13-1.72-1.69-2.58-17.22-97.89-46.77-192.64-71.39-287.62h-168.57c49.23,146.91,97.92,292.17,146.39,436.78-9.35,29.19-21.81,55.75-48.42,69.86-14.8,7.84-29.47,10.93-44.12,10.93-26.95,0-53.8-10.47-81.05-21.07,3.1,22.48,5.88,42.99,8.73,63.49,2.83,20.44,5.75,40.87,8.61,61.25,31.92,8.29,62.91,11.58,94.16,12.24,2.92.06,5.8.09,8.65.09,101.4,0,158.24-38.65,193.82-123,48.47-114.94,98.46-229.22,148.12-343.66,24.02-55.35,48.79-110.37,73.84-166.95h0v-.03Z"/>
  </g>
  <g>
    <path class="cls-2" d="M847.47,697.61c14.01-122.41,21.82-252.72,24.48-408.16h149.26c-.88,12.38-1.76,24.9-2.68,37.94-.22,3.17,1.07,6.25,3.49,8.31,1.83,1.56,4.13,2.39,6.48,2.39.76,0,1.52-.09,2.28-.26.32-.07.85-.14,1.36-.21,2.28-.29,6.51-.83,9.59-4.51,29.98-36.14,82.65-56.85,144.52-56.85,32.08,0,63.5,5.8,88.46,16.34,43.46,18.35,64.97,53.41,63.93,104.23-.72,35.58-2.67,71.81-4.56,106.85-1,18.54-2.03,37.71-2.87,56.59-1.46,32.78-2.77,66.26-4.04,98.63-.5,12.82-1.01,25.68-1.53,38.61h-149.71c.84-13.97,1.69-27.89,2.53-41.78,2.55-41.76,5.18-84.95,7.29-127.33.1-2.03.21-4.07.32-6.11,1.23-23.63,2.51-48.06-3.32-72.53-8.24-34.54-35.34-56.86-69.03-56.86-8.78,0-17.71,1.55-26.53,4.62-35.25,12.27-58.22,39.78-68.28,81.76-11.86,49.54-13.81,100.47-15.69,149.73-.31,8.12-.63,16.51-.99,24.74-.5,11.63-1.04,23.26-1.6,35.15-.13,2.89-.27,5.8-.41,8.73h-152.78l.03-.02Z"/>
    <path class="cls-2" d="M1186.26,286.24c30.77,0,60.81,5.52,84.57,15.55,20.04,8.46,35.03,20.88,44.55,36.91,9.27,15.61,13.74,35.09,13.27,57.9-.72,35.4-2.66,71.54-4.54,106.49-1,18.57-2.03,37.77-2.87,56.71-1.46,32.84-2.77,66.37-4.05,98.79-.38,9.6-.75,19.23-1.14,28.89h-129.49c.63-10.5,1.27-20.97,1.9-31.23,2.55-41.77,5.18-84.97,7.29-127.38.1-2.03.21-4.05.31-6.08,1.27-24.34,2.59-49.51-3.58-75.39-9.21-38.6-40.86-64.54-78.76-64.54-9.9,0-19.93,1.74-29.82,5.18-38.67,13.46-63.8,43.36-74.71,88.88-12.09,50.49-14.05,101.93-15.96,151.66-.31,8.11-.63,16.49-.99,24.71-.49,11.35-1.01,22.52-1.56,34.31h-132.04c12.97-116.92,20.38-241.37,23.11-388.16h128.7c-.63,8.91-1.27,17.94-1.92,27.24-.44,6.34,2.15,12.51,6.98,16.63,3.66,3.11,8.26,4.77,12.97,4.77,1.45,0,2.9-.16,4.35-.48.19-.03.38-.05.56-.07,2.84-.36,10.4-1.33,16-8.02.02-.02.03-.04.05-.06,14.53-17.52,34.61-31.08,59.67-40.3,22.97-8.45,49.64-12.91,77.13-12.91M1186.26,266.24c-56.73,0-116.63,17.56-152.2,60.44-.86,1.03-3.19.84-5.56,1.4,1.18-16.8,2.31-32.75,3.44-48.64h-169.83c-2.24,143.68-9.07,285.73-25.87,428.16h173.59-.03c.84-18.42,1.69-35.93,2.44-53.44,2.53-57.81,2.85-115.9,16.42-172.58,8.29-34.6,26.31-62.27,61.84-74.64,7.92-2.75,15.74-4.07,23.24-4.07,28.28,0,52.02,18.66,59.3,49.18,5.98,25.09,4.01,50.56,2.75,75.82-2.97,59.63-6.88,119.2-10.45,179.61h169.93c2.01-49.62,3.79-98.21,5.95-146.79,2.43-54.57,6.32-109.09,7.43-163.68,1.06-52.09-20.58-92.76-70.04-113.64-25.75-10.87-58.48-17.13-92.35-17.13h0ZM1031.94,279.44h0Z"/>
  </g>
  <path class="cls-1" d="M4284.09,287.83c-4.62,51.02-6.83,100.26-9.61,149.47-4.92,87.03-9.61,174.03-10.6,261.21-.3,26.02-.1,52.14-4.5,77.88-12.49,73.14-53.32,115.04-131.88,129.15-78.55,14.11-156.82,6.45-234.09-12.22-1.77-.42-3.27-2.01-5.58-3.49-2.33-18.22-3.24-36.81-2.34-56.46,15.45-.25,28.43,6.3,42.07,9.4,50.22,11.41,100.46,22.5,152.44,13.79,66.96-11.24,94.78-38.12,107.15-105.15,7.42-40.2,7.72-80.96,5.86-122.27-10.42,13.43-18.96,27.77-31.28,39.13-47.93,44.17-105.94,54.47-167.37,45.37-92.29-13.7-143.25-71.56-148.75-165.28-4.92-84.05,16.72-158.73,81.67-216.38,36.66-32.54,81.07-47.85,128.86-55.89,76.57-12.88,151.28.67,227.91,11.73h.04ZM4204.14,334.9c-32.16-7.01-64.97-10.77-98.14-9.3-53.61,2.36-102.96,16.06-140.12,58.18-30.03,34.04-44.75,75.01-47.8,119.37-8.33,120.64,66.57,181.31,175.68,152.71,60.28-15.81,88.45-65.43,100.04-123.72,10.57-53.16,9.71-107.44,11.85-161.34.46-11.46,2.98-23.27-1.52-35.86v-.03h.01Z"/>
  <g>
    <path class="cls-2" d="M1436.99,697.12c13.77-202.25,22.53-383.24,26.76-552.56h152.67c-14.31,196.17-21.97,388.62-27.54,552.56h-151.89Z"/>
    <path class="cls-2" d="M1605.66,154.55c-13.54,188.78-21.01,373.66-26.45,532.56h-131.52c13.1-194.25,21.56-368.9,25.81-532.56h132.17M1627.17,134.55h-173.19c-4.6,191.78-14.63,382.15-27.71,572.56h172.26c6.45-191.52,14.48-381.56,28.63-572.56h.01Z"/>
  </g>
  <path class="cls-1" d="M2399.95,443.37c-4.57-17.38-8.8-33.47-13.85-52.68,27.47,5.7,52.7,5.75,77.86,4.92,53.54-1.74,98.19-19.16,121.97-71.81,9.69-21.45,12.1-43.99,8.66-66.87-5.56-36.91-30.49-62.29-68.98-66.62-51.07-5.75-102.45-.98-155.63-1.94-7.94,173.42-13.35,345.41-16.74,518.45h-78.37c11.54-191.07,19.58-381.19,22.04-571.37,11.19-5.09,21.66-1.89,31.8-1.95,65.76-.47,131.52-.35,197.27-.78,56.64-.37,105.52,15.32,130.53,70.73,26.36,58.43,19.92,116.07-15.96,168.89-36.34,53.48-91.73,72.18-153.05,77.44-28.67,2.46-57.12-.39-87.55-6.39l-.02-.02h.02Z"/>
  <path class="cls-1" d="M5295.7,706.61h-76.28c3.29-57.02,7.03-112.72,9.56-168.48,1.8-39.61,6.62-79.26,3.17-118.92-4.03-46.23-25.6-70.75-70.08-82.63-98.36-26.27-177.25,28.53-190.36,132.27-9.17,72.45-10.11,145.38-12.08,218.22-.15,5.8-.02,11.61-.02,19.1h-75.54c7.11-141.05,14.21-281.81,21.39-424.14h72.44c2.33,23.09-5.46,45.91-1.11,71.75,13.04-15.89,22.18-31.6,36.44-42.96,43.48-34.62,94.45-41.21,147.45-39.61,13.58.4,27.25,2.7,40.57,5.53,71.16,15.15,105.05,54.27,104.85,126.74-.17,60.45-4.67,120.89-7.16,181.34-1.18,28.6-2.26,57.22-3.13,85.83-.35,11.58-.05,23.16-.05,35.93l-.03.03h-.03Z"/>
  <path class="cls-1" d="M4364.46,503.2c1.08-64.06,14.49-122.24,59.19-167.15,60.61-60.91,136.34-74.22,218.32-60.27,122.2,20.81,167.79,119.24,160.51,228.53-3.02,45.44-16.5,88.16-41.75,126.49-23.33,35.39-54.98,60.2-95.66,73.31-50.22,16.2-101.26,17.78-152.09,5.6-84.37-20.22-139.92-87.03-146.86-173.79-.93-11.66-1.21-23.39-1.67-32.71h.01ZM4439.92,503.49c-.81,18.13.74,35.54,4.37,52.85,12.42,59.46,54.54,99.15,114.25,107.26,62.61,8.51,119.12-18.67,145.8-71.93,22.15-44.22,28.77-91.5,22.1-140.52-4.18-30.66-11.63-60.23-33.44-83.8-67.43-72.82-199.21-48.84-236.3,43.2-12.03,29.85-18.49,60.99-16.75,92.93l-.02.02h-.01Z"/>
  <path class="cls-1" d="M2934.61,717.11c-49.92.07-96.99-9.91-137.66-40.67-47.93-36.24-69.1-87.13-74.46-144.82-6.74-72.52,5.09-141.87,57.81-195.72,59.37-60.66,135.23-74.95,216.31-60.02,101.95,18.76,157.88,85.89,162.15,189.89,1.16,28.09-.81,55.84-7.45,83.26-26.43,109.26-96.42,165.64-208.88,168.03-2.6.05-5.21,0-7.82.03v.02h0ZM3084.17,484.24c0-6.51.51-13.04-.08-19.5-3.51-38.85-11.31-76.51-41.32-104.39-61.89-57.45-194.93-48.23-231.74,54.82-15.62,43.75-20.01,88.38-11.97,134.26,11.16,63.74,54.37,106.41,116.14,114.2,66.93,8.44,123.47-21.89,149.93-80.76,14.07-31.31,19.13-64.52,19.06-98.63h-.02,0Z"/>
  <path class="cls-1" d="M3550.42,718.54c-51.22-144.72-102.55-289.76-154.41-436.29h78.08c34.31,123.23,79.9,242.29,116.85,368.23,52.53-124.36,103.75-245.59,155.46-368h75.07c-15.27,33.98-29.53,65.81-43.87,97.62-63.1,139.9-126.2,279.82-189.42,419.69-5.09,11.26-11.06,22.11-16.69,33.1-39.82,77.91-119.32,93.59-207.23,68.31-2.01-18-4.08-36.52-6.34-56.66,18.12,4.75,34.52,10.31,51.37,13.21,36.59,6.32,66.93-4.67,88.23-36.24,21.54-31.9,39.44-65.69,52.89-102.99l.02.02h-.01Z"/>
  <path class="cls-1" d="M3343.39,133.84c-11.27,191.89-19.53,381.9-24.69,572.99h-77.22c12.24-190.92,20.17-381.39,24.27-572.99h77.64Z"/>
  <path class="cls-1" d="M1910.94,566.48c-.29,1.01-.59,2.01-.88,3.02-.56-.86-1.13-1.72-1.69-2.58.72-.91,1.57-1.04,2.56-.44h0Z"/>
</svg>