<?xml version="1.0" encoding="UTF-8"?><svg id="Layer_1" xmlns="http://www.w3.org/2000/svg" viewBox="0 0 3000 1134"><defs><style>.cls-1{fill:#2f3292;}.cls-2{fill:#2aabe2;}</style></defs><path class="cls-2" d="m835.79,1026.07c-11.04-19.59-25.8-36.51-39.48-54.16-62.07-80.11-129.62-155.35-202.68-225.57-136.03-130.75-286.52-241.94-451.99-332.73-2.02-1.11-3.91-2.44-5.87-3.67,5.47-11.6,6.9-23.69,4.32-36.25,132.38-14.24,262.47-39.92,389.98-78.36,156.24-47.1,304.92-111.68,446.31-193.1,1.99-1.15,4.11-2.09,6.16-3.13,7.53,10.45,16.98,18.28,29.62,21.78-27.93,73.59-53.31,148.01-73.62,224.13-39.85,149.36-63.35,301.2-70.04,455.63-3.09,71.4-2.41,142.8,1,214.17-12.53-.12-24.36,1.87-33.72,11.26Z"/><path class="cls-1" d="m1365.62,184.95c38.18.36,75.54,5.6,109.72,23.66,56.82,30.02,86.14,77.4,87.31,141.99.52,28.55-3.71,56.1-15.18,82.38-16.95,38.83-44.41,67.93-83.37,84.35-70.74,29.82-143.12,31.39-214.01,2.42-64.2-26.24-96.51-76.81-97.52-146.47-.86-59.91,18.91-110.55,68.74-146.64,30.62-22.19,65.53-33.9,102.75-39.02,13.77-1.89,27.62-3.04,41.56-2.65Zm88.35,173.09c-.32-85.3-76.02-113.87-133.61-88.79-36.84,16.05-53.35,47.34-58.52,85.62-9.18,68,50.79,121.51,117.3,104.77,45.85-11.53,74.58-50.55,74.82-101.61Z"/><path class="cls-1" d="m2234.58,448.75c12.23-47.52,30.45-92.98,47.8-138.74,3.95-10.42,8.09-20.76,12.37-31.71h97.8c-14.86,33.57-29.56,66.22-43.81,99.06-29.47,67.9-59.13,135.71-87.89,203.91-21.7,51.46-56.73,74.25-120.13,72.93-18.54-.39-36.93-2.34-55.87-7.26-1.7-12.09-3.43-24.21-5.11-36.34-1.69-12.16-3.34-24.33-5.18-37.67,24.96,9.71,49.33,19.23,74.27,6.02,15.79-8.37,23.18-24.13,28.73-41.45-28.76-85.8-57.65-171.99-86.86-259.16h100.02c14.61,56.36,32.14,112.58,42.36,170.66.33.51.66,1.02,1,1.53.18-.6.35-1.2.52-1.79Z"/><path class="cls-1" d="m1699.91,532.49h-103c9.97-84.51,14.02-168.8,15.35-254.05h100.77c-.67,9.43-1.34,18.89-2.04,28.86,1.41-.33,2.79-.22,3.3-.83,33.7-40.63,104.23-42.95,145.1-25.7,29.35,12.39,42.19,36.52,41.56,67.43-.66,32.39-2.97,64.74-4.41,97.12-1.28,28.83-2.34,57.66-3.53,87.1h-100.83c2.12-35.84,4.44-71.19,6.2-106.57.75-14.99,1.92-30.1-1.63-44.99-5.47-22.92-26.57-34.56-48.98-26.77-21.08,7.34-31.77,23.76-36.69,44.29-8.05,33.63-8.24,68.1-9.74,102.4-.45,10.39-.95,20.78-1.45,31.71Z"/><path class="cls-2" d="m2341.79,712.81c-2.74,30.27-4.05,59.49-5.7,88.69-2.92,51.64-5.7,103.26-6.29,154.99-.18,15.44-.06,30.94-2.67,46.21-7.41,43.4-31.64,68.26-78.25,76.63-46.61,8.37-93.05,3.83-138.9-7.25-1.05-.25-1.94-1.19-3.31-2.07-1.38-10.81-1.92-21.84-1.39-33.5,9.17-.15,16.87,3.74,24.96,5.58,29.8,6.77,59.61,13.35,90.45,8.18,39.73-6.67,56.24-22.62,63.58-62.39,4.4-23.85,4.58-48.04,3.48-72.55-6.18,7.97-11.25,16.48-18.56,23.22-28.44,26.21-62.86,32.32-99.31,26.92-54.76-8.13-85-42.46-88.26-98.07-2.92-49.87,9.92-94.18,48.46-128.39,21.75-19.31,48.1-28.39,76.46-33.16,45.43-7.64,89.76.4,135.23,6.96Zm-47.44,27.93c-19.08-4.16-38.55-6.39-58.23-5.52-31.81,1.4-61.09,9.53-83.14,34.52-17.82,20.2-26.55,44.51-28.36,70.83-4.94,71.58,39.5,107.58,104.24,90.61,35.77-9.38,52.48-38.82,59.36-73.41,6.27-31.54,5.76-63.75,7.03-95.73.27-6.8,1.77-13.81-.9-21.28Z"/><path class="cls-1" d="m2066.21,192.47c-8.4,113.33-13.16,226.09-16.99,339.73h-102.21c7.76-112.98,13.71-225.94,16.44-339.73h102.76Z"/><path class="cls-2" d="m1223.84,805.1c-2.71-10.31-5.22-19.86-8.22-31.26,16.3,3.38,31.27,3.41,46.2,2.92,31.77-1.03,58.26-11.37,72.37-42.61,5.75-12.73,7.18-26.1,5.14-39.68-3.3-21.9-18.09-36.96-40.93-39.53-30.3-3.41-60.79-.58-92.34-1.15-4.71,102.9-7.92,204.95-9.93,307.62h-46.5c6.85-113.37,11.62-226.18,13.08-339.02,6.64-3.02,12.85-1.12,18.87-1.16,39.02-.28,78.04-.21,117.05-.46,33.61-.22,62.61,9.09,77.45,41.97,15.64,34.67,11.82,68.87-9.47,100.21-21.56,31.73-54.43,42.83-90.81,45.95-17.01,1.46-33.89-.23-51.95-3.79Z"/><path class="cls-2" d="m2942.03,961.29h-45.26c1.95-33.83,4.17-66.88,5.67-99.97,1.07-23.5,3.93-47.03,1.88-70.56-2.39-27.43-15.19-41.98-41.58-49.03-58.36-15.59-105.17,16.93-112.95,78.48-5.44,42.99-6,86.26-7.17,129.48-.09,3.44-.01,6.89-.01,11.33h-44.82c4.22-83.69,8.43-167.21,12.69-251.66h42.98c1.38,13.7-3.24,27.24-.66,42.57,7.74-9.43,13.16-18.75,21.62-25.49,25.8-20.54,56.04-24.45,87.49-23.5,8.06.24,16.17,1.6,24.07,3.28,42.22,8.99,62.33,32.2,62.21,75.2-.1,35.87-2.77,71.73-4.25,107.6-.7,16.97-1.34,33.95-1.86,50.93-.21,6.87-.03,13.74-.03,21.32Z"/><path class="cls-2" d="m2389.48,840.6c.64-38.01,8.6-72.53,35.12-99.18,35.96-36.14,80.9-44.04,129.54-35.76,72.51,12.35,99.56,70.75,95.24,135.6-1.79,26.96-9.79,52.31-24.77,75.05-13.84,21-32.62,35.72-56.76,43.5-29.8,9.61-60.08,10.55-90.24,3.32-50.06-12-83.02-51.64-87.14-103.12-.55-6.92-.72-13.88-.99-19.41Zm44.77.17c-.48,10.76.44,21.09,2.59,31.36,7.37,35.28,32.36,58.83,67.79,63.64,37.15,5.05,70.68-11.08,86.51-42.68,13.14-26.24,17.07-54.29,13.11-83.38-2.48-18.19-6.9-35.74-19.84-49.72-40.01-43.21-118.2-28.98-140.21,25.63-7.14,17.71-10.97,36.19-9.94,55.14Z"/><path class="cls-2" d="m1541.08,967.52c-29.62.04-57.55-5.88-81.68-24.13-28.44-21.5-41-51.7-44.18-85.93-4-43.03,3.02-84.18,34.3-116.13,35.23-35.99,80.24-44.47,128.35-35.61,60.49,11.13,93.68,50.96,96.21,112.67.69,16.67-.48,33.13-4.42,49.4-15.68,64.83-57.21,98.28-123.94,99.7-1.54.03-3.09,0-4.64.02Zm88.74-138.17c0-3.86.3-7.74-.05-11.57-2.08-23.05-6.71-45.4-24.52-61.94-36.72-34.09-115.66-28.62-137.5,32.53-9.27,25.96-11.87,52.44-7.1,79.66,6.62,37.82,32.26,63.14,68.91,67.76,39.71,5.01,73.26-12.99,88.96-47.92,8.35-18.58,11.35-38.28,11.31-58.52Z"/><path class="cls-2" d="m1906.47,968.37c-30.39-85.87-60.85-171.93-91.62-258.87h46.33c20.36,73.12,47.41,143.76,69.33,218.49,31.17-73.79,61.56-145.72,92.24-218.35h44.54c-9.06,20.16-17.52,39.05-26.03,57.92-37.44,83.01-74.88,166.03-112.39,249.02-3.02,6.68-6.56,13.12-9.9,19.64-23.63,46.23-70.8,55.53-122.96,40.53-1.19-10.68-2.42-21.67-3.76-33.62,10.75,2.82,20.48,6.12,30.48,7.84,21.71,3.75,39.71-2.77,52.35-21.5,12.78-18.93,23.4-38.98,31.38-61.11Z"/><path class="cls-2" d="m1783.63,621.44c-6.69,113.86-11.59,226.6-14.65,339.98h-45.82c7.26-113.28,11.97-226.3,14.4-339.98h46.07Z"/><path class="cls-1" d="m1012.16,120.87c-12.64-3.5-22.09-11.33-29.62-21.78-7.79-24.97-3.35-43.07,13.48-54.91,14.48-10.18,34.5-10.11,48.88.17,14.93,10.68,21.22,29.68,15.66,47.36-5.38,17.11-20.76,28.46-39.17,28.93-3.08.08-6.15.16-9.23.24Z"/><path class="cls-1" d="m835.79,1026.07c9.36-9.39,21.19-11.38,33.72-11.26,30.67,4.6,46.24,36.87,31.47,63.02-8.77,15.53-22.97,22.48-40.67,20.89-17.3-1.56-29.63-10.96-35.34-27.28-5.96-17.03-2.65-32.6,10.82-45.37Z"/><path class="cls-1" d="m140.09,373.69c2.58,12.56,1.16,24.64-4.32,36.25-12.54,15.04-27.92,22.92-47.76,17.64-18.4-4.9-30.53-21.12-30.76-39.97-.24-19.37,12.13-35.96,30.71-41.2,18.01-5.07,36.9,2.21,47.1,18.26,1.84,2.9,3.36,6.01,5.03,9.02Z"/><path class="cls-2" d="m2234.58,448.75c-.17.6-.35,1.19-.52,1.79-.33-.51-.67-1.02-1-1.53.43-.54.93-.62,1.52-.26Z"/></svg>